<mxfile host="app.diagrams.net" modified="2023-12-10T17:42:30.078Z" agent="Mozilla/5.0 (Windows NT 10.0; Win64; x64; rv:120.0) Gecko/20100101 Firefox/120.0" version="22.1.7" etag="DEf5Yp0S_V4kpSGVan0W" type="github">
  <diagram name="PÃ¡gina-1" id="FgcGN_s-Ld8JDQu1h0ue">
    <mxGraphModel>
      <root>
        <mxCell id="0" />
        <mxCell id="1" parent="0" />
      </root>
    </mxGraphModel>
  </diagram>
</mxfile>
